<svg width="13" height="15" viewBox="0 0 13 15" fill="none" xmlns="http://www.w3.org/2000/svg">
<path fill-rule="evenodd" clip-rule="evenodd" d="M6.5 0.533447C6.84978 0.533447 7.13333 0.817003 7.13333 1.16678V12.3045L11.1188 8.31895C11.3662 8.07161 11.7672 8.07161 12.0146 8.31895C12.2618 8.56628 12.2618 8.96728 12.0146 9.21461L6.94783 14.2813C6.82907 14.4 6.66797 14.4668 6.5 14.4668C6.33203 14.4668 6.17093 14.4 6.05217 14.2813L0.985504 9.21461C0.738162 8.96728 0.738162 8.56628 0.985504 8.31895C1.23283 8.07161 1.63383 8.07161 1.88116 8.31895L5.86667 12.3045V1.16678C5.86667 0.817003 6.15022 0.533447 6.5 0.533447Z" fill="white"/>
</svg>
