<svg width="93" height="88" viewBox="0 0 93 88" fill="none" xmlns="http://www.w3.org/2000/svg">
<path d="M42.1281 27.1961C33.9372 28.8849 27.4766 34.8308 25.5625 42.4302C25.176 43.9606 25.176 43.9781 24.6053 43.9781C23.8507 43.9781 22.4334 44.7346 21.8628 45.4558C20.7216 46.8984 20.1142 49.3083 20.1142 52.4924C20.1142 54.9727 20.4271 56.7143 21.1634 58.2622C21.642 59.2825 22.8199 60.514 23.3169 60.514C23.4642 60.514 23.6113 60.6195 23.6482 60.7251C23.7034 60.8834 24.3292 60.9712 25.6913 61.0065L27.6608 61.0768V52.4219V43.767L28.213 42.2015C28.8388 40.4072 29.7958 38.5074 30.7898 37.1C32.4832 34.7252 35.0785 32.3152 35.7595 32.4912C35.9988 32.5439 36.5325 32.3329 37.2872 31.8754C38.7781 30.9431 41.2446 29.8348 42.7539 29.4478C44.484 28.9904 48.9752 28.9904 50.7606 29.4478C52.3988 29.8525 55.1412 31.0838 56.5217 31.9985C57.2395 32.4735 57.6998 32.6846 57.9574 32.6143C58.2335 32.5439 58.6016 32.7374 59.2826 33.2828C62.0621 35.5696 64.2523 38.824 65.4671 42.5357L65.9457 43.9958V52.4396V60.8657H67.9705C69.0932 60.8657 69.9951 60.7954 69.9951 60.7074C69.9951 60.6195 70.1976 60.4963 70.4368 60.4435C71.5412 60.1796 72.6641 58.4381 73.1978 56.1338C73.658 54.1987 73.6211 50.311 73.1242 48.4639C72.9217 47.7075 72.5903 46.74 72.388 46.353C71.9646 45.5086 71.0442 44.5763 70.492 44.4003C70.2897 44.33 69.9951 44.1717 69.8479 44.0486C69.719 43.9078 69.3141 43.8023 68.9644 43.8023C68.4306 43.8023 68.3201 43.732 68.2281 43.3098C67.2341 39.0174 65.4488 35.8335 62.4117 32.9134C59.3563 29.9931 55.5463 28.0405 51.2576 27.1786C49.4722 26.8267 43.9135 26.8444 42.1281 27.1961ZM25.0287 50.6101C24.9918 50.9795 24.9551 50.7156 24.9551 50.0471C24.9551 49.361 24.9918 49.0796 25.0287 49.3787C25.0655 49.6954 25.0655 50.2582 25.0287 50.6101ZM25.0287 53.7765C24.9918 54.1459 24.9551 53.882 24.9551 53.2135C24.9551 52.5275 24.9918 52.246 25.0287 52.5451C25.0655 52.8618 25.0655 53.4246 25.0287 53.7765Z" fill="white"/>
<path d="M40.1954 44.2242C40.0481 44.3826 40.0113 46.7574 40.0298 52.6856C40.085 60.0035 40.1217 60.9359 40.3794 61.0942C40.6003 61.2349 41.7783 60.6896 45.6252 58.6666C56.8163 52.756 56.2824 53.0726 56.2824 52.5977C56.2824 52.2106 55.4725 51.7356 48.5518 48.0767C44.3 45.8427 40.7291 43.9956 40.6187 43.9956C40.5082 43.9779 40.3059 44.0835 40.1954 44.2242Z" fill="white"/>
</svg>
